<svg width="473" height="524" viewBox="0 0 473 524" fill="none" xmlns="http://www.w3.org/2000/svg">
<path d="M220.366 0.738091C207.566 1.53809 185.566 5.27142 171.032 9.13809C81.6989 32.6048 21.1655 104.205 4.49888 206.471C-0.967789 240.205 -1.50112 283.538 3.16554 315.805C15.5655 402.338 59.6989 467.671 128.099 500.871C181.966 527.005 254.499 530.871 316.366 510.871C382.632 489.405 431.699 438.738 455.832 366.338C475.166 308.338 477.832 231.538 462.499 172.338C444.232 102.605 404.099 50.8714 345.699 22.4714C309.566 4.73809 268.099 -2.46191 220.366 0.738091ZM281.432 35.6714C345.966 48.6048 391.032 85.1381 416.099 145.138C431.566 181.938 438.366 225.138 436.499 273.405C434.632 321.938 426.366 356.605 408.232 391.938C392.632 422.471 371.166 446.071 343.699 463.005L333.832 469.138H311.966H290.099L296.632 464.338C311.299 453.271 323.832 439.005 332.232 423.671C342.499 405.005 346.499 388.071 346.632 363.805C346.632 338.738 344.232 327.405 331.966 296.471C324.632 278.071 324.499 277.538 323.966 261.405L323.432 245.138H317.832H312.366L300.366 214.071C293.832 197.138 285.699 175.805 282.232 166.738L275.966 150.471H297.166H318.366V135.805V121.138H291.032C273.966 121.138 263.699 120.605 263.699 119.805C263.699 119.138 260.632 110.738 256.899 101.138L250.099 83.6714L236.099 84.0714L221.966 84.4714L215.166 102.471L208.232 120.471L181.966 120.871L155.699 121.138V135.805V150.338L176.099 150.738L196.499 151.138L178.499 198.071L160.499 245.138H154.099H147.699V262.071L147.566 279.138L140.232 297.138C126.366 330.738 124.366 340.738 125.432 369.405C125.966 384.738 126.766 390.738 129.566 400.205C136.899 425.005 150.499 444.738 171.432 461.405L181.166 469.138H159.432H137.699L129.832 464.338C78.7655 433.538 44.4989 372.471 37.0322 298.605C35.2989 280.871 35.2989 244.605 37.1655 228.071C47.4322 133.271 102.099 61.9381 181.699 39.1381C202.366 33.2714 215.299 31.8048 242.366 32.3381C260.766 32.7381 270.632 33.5381 281.432 35.6714ZM237.432 116.738C238.232 120.471 237.966 121.138 235.832 121.138C233.832 121.138 233.432 120.471 233.966 118.071C235.699 110.338 236.232 110.071 237.432 116.738ZM262.499 189.138L276.632 227.805H236.232C213.966 227.805 195.699 227.405 195.699 226.738C195.699 226.205 201.832 208.871 209.299 188.205L223.032 150.471H235.699H248.366L262.499 189.138ZM262.499 279.271C282.366 285.138 299.966 300.071 308.899 318.871C314.099 329.671 318.366 345.938 318.366 355.138V359.805H296.766H275.032L261.832 324.471L248.766 289.138H235.832H222.899L209.566 324.071L196.232 359.138L174.499 359.538L152.632 359.938L153.566 351.405C157.166 316.205 177.699 289.671 209.032 279.671C219.032 276.471 251.966 276.205 262.499 279.271ZM245.566 341.671C248.899 351.005 251.699 359.005 251.699 359.271C251.699 359.538 244.232 359.805 235.166 359.805H218.499L226.766 335.405L235.032 311.138L237.166 317.805C238.366 321.405 242.099 332.205 245.566 341.671ZM181.832 397.405C180.099 402.071 177.432 409.138 175.832 413.138C174.232 417.138 173.032 422.471 173.032 424.738V429.138H199.032H225.032V442.471V455.805H235.699H246.366V442.471V429.138H272.232H298.232L297.432 422.871C297.166 419.538 296.232 415.138 295.432 413.271C294.766 411.405 292.366 405.138 290.232 399.405L286.499 389.138H301.166H315.966L315.032 394.071C313.432 403.138 306.499 418.871 299.832 429.405C292.766 440.338 276.766 457.938 267.832 464.471L262.366 468.471V479.271V490.071L257.432 491.005C250.899 492.071 215.166 492.071 212.499 491.005C210.766 490.338 210.366 488.071 210.366 479.938V469.805L199.699 460.738C180.632 444.738 165.032 421.805 158.499 400.605C156.899 395.671 155.699 391.005 155.699 390.338C155.699 389.671 162.232 389.138 170.366 389.138H184.899L181.832 397.405ZM225.032 399.138V409.138H212.899C201.832 409.138 200.899 408.871 201.699 406.738C202.232 405.538 203.832 401.005 205.299 396.738L207.966 389.138H216.499H225.032V399.138ZM265.832 398.338C267.566 403.005 269.032 407.271 269.032 407.938C269.032 408.605 263.966 409.138 257.699 409.138H246.366V399.138V389.005L254.499 389.405L262.632 389.805L265.832 398.338Z" fill="white"/>
</svg>
