<svg width="982" height="982" viewBox="0 0 982 982" fill="none" xmlns="http://www.w3.org/2000/svg">
<path d="M462 211.6C449.2 212.4 427.2 216.133 412.667 220C323.334 243.467 262.8 315.067 246.134 417.333C240.667 451.067 240.134 494.4 244.8 526.667C257.2 613.2 301.334 678.533 369.734 711.733C423.6 737.867 496.134 741.733 558 721.733C624.267 700.267 673.334 649.6 697.467 577.2C716.8 519.2 719.467 442.4 704.134 383.2C685.867 313.467 645.734 261.733 587.334 233.333C551.2 215.6 509.734 208.4 462 211.6ZM523.067 246.533C587.6 259.467 632.667 296 657.734 356C673.2 392.8 680 436 678.134 484.267C676.267 532.8 668 567.467 649.867 602.8C634.267 633.333 612.8 656.933 585.334 673.867L575.467 680H553.6H531.734L538.267 675.2C552.934 664.133 565.467 649.867 573.867 634.533C584.134 615.867 588.134 598.933 588.267 574.667C588.267 549.6 585.867 538.267 573.6 507.333C566.267 488.933 566.134 488.4 565.6 472.267L565.067 456H559.467H554L542 424.933C535.467 408 527.334 386.667 523.867 377.6L517.6 361.333H538.8H560V346.667V332H532.667C515.6 332 505.334 331.467 505.334 330.667C505.334 330 502.267 321.6 498.534 312L491.734 294.533L477.734 294.933L463.6 295.333L456.8 313.333L449.867 331.333L423.6 331.733L397.334 332V346.667V361.2L417.734 361.6L438.134 362L420.134 408.933L402.134 456H395.734H389.334V472.933L389.2 490L381.867 508C368 541.6 366 551.6 367.067 580.267C367.6 595.6 368.4 601.6 371.2 611.067C378.534 635.867 392.134 655.6 413.067 672.267L422.8 680H401.067H379.334L371.467 675.2C320.4 644.4 286.134 583.333 278.667 509.467C276.934 491.733 276.934 455.467 278.8 438.933C289.067 344.133 343.734 272.8 423.334 250C444 244.133 456.934 242.667 484 243.2C502.4 243.6 512.267 244.4 523.067 246.533ZM479.067 327.6C479.867 331.333 479.6 332 477.467 332C475.467 332 475.067 331.333 475.6 328.933C477.334 321.2 477.867 320.933 479.067 327.6ZM504.134 400L518.267 438.667H477.867C455.6 438.667 437.334 438.267 437.334 437.6C437.334 437.067 443.467 419.733 450.934 399.067L464.667 361.333H477.334H490L504.134 400ZM504.134 490.133C524 496 541.6 510.933 550.534 529.733C555.734 540.533 560 556.8 560 566V570.667H538.4H516.667L503.467 535.333L490.4 500H477.467H464.534L451.2 534.933L437.867 570L416.134 570.4L394.267 570.8L395.2 562.267C398.8 527.067 419.334 500.533 450.667 490.533C460.667 487.333 493.6 487.067 504.134 490.133ZM487.2 552.533C490.534 561.867 493.334 569.867 493.334 570.133C493.334 570.4 485.867 570.667 476.8 570.667H460.134L468.4 546.267L476.667 522L478.8 528.667C480 532.267 483.734 543.067 487.2 552.533ZM423.467 608.267C421.734 612.933 419.067 620 417.467 624C415.867 628 414.667 633.333 414.667 635.6V640H440.667H466.667V653.333V666.667H477.334H488V653.333V640H513.867H539.867L539.067 633.733C538.8 630.4 537.867 626 537.067 624.133C536.4 622.267 534 616 531.867 610.267L528.134 600H542.8H557.6L556.667 604.933C555.067 614 548.134 629.733 541.467 640.267C534.4 651.2 518.4 668.8 509.467 675.333L504 679.333V690.133V700.933L499.067 701.867C492.534 702.933 456.8 702.933 454.134 701.867C452.4 701.2 452 698.933 452 690.8V680.667L441.334 671.6C422.267 655.6 406.667 632.667 400.134 611.467C398.534 606.533 397.334 601.867 397.334 601.2C397.334 600.533 403.867 600 412 600H426.534L423.467 608.267ZM466.667 610V620H454.534C443.467 620 442.534 619.733 443.334 617.6C443.867 616.4 445.467 611.867 446.934 607.6L449.6 600H458.134H466.667V610ZM507.467 609.2C509.2 613.867 510.667 618.133 510.667 618.8C510.667 619.467 505.6 620 499.334 620H488V610V599.867L496.134 600.267L504.267 600.667L507.467 609.2Z" fill="white"/>
</svg>
