<?xml version="1.0" standalone="no"?>
<!DOCTYPE svg PUBLIC "-//W3C//DTD SVG 20010904//EN"
 "http://www.w3.org/TR/2001/REC-SVG-20010904/DTD/svg10.dtd">
<svg version="1.0" xmlns="http://www.w3.org/2000/svg"
 width="736.000000pt" height="736.000000pt" viewBox="0 0 736.000000 736.000000"
 preserveAspectRatio="xMidYMid meet">

<g transform="translate(0.000000,736.000000) scale(0.100000,-0.100000)"
fill="#000000" stroke="none">
<path d="M3465 5773 c-96 -6 -261 -34 -370 -63 -670 -176 -1124 -713 -1249
-1480 -41 -253 -45 -578 -10 -820 93 -649 424 -1139 937 -1388 404 -196 948
-225 1412 -75 497 161 865 541 1046 1084 145 435 165 1011 50 1455 -137 523
-438 911 -876 1124 -271 133 -582 187 -940 163z m458 -262 c484 -97 822 -371
1010 -821 116 -276 167 -600 153 -962 -14 -364 -76 -624 -212 -889 -117 -229
-278 -406 -484 -533 l-74 -46 -164 0 -164 0 49 36 c110 83 204 190 267 305 77
140 107 267 108 449 0 188 -18 273 -110 505 -55 138 -56 142 -60 263 l-4 122
-42 0 -41 0 -90 233 c-49 127 -110 287 -136 355 l-47 122 159 0 159 0 0 110 0
110 -205 0 c-128 0 -205 4 -205 10 0 5 -23 68 -51 140 l-51 131 -105 -3 -106
-3 -51 -135 -52 -135 -197 -3 -197 -2 0 -110 0 -109 153 -3 153 -3 -135 -352
-135 -353 -48 0 -48 0 0 -127 -1 -128 -55 -135 c-104 -252 -119 -327 -111
-542 4 -115 10 -160 31 -231 55 -186 157 -334 314 -459 l73 -58 -163 0 -163 0
-59 36 c-383 231 -640 689 -696 1243 -13 133 -13 405 1 529 77 711 487 1246
1084 1417 155 44 252 55 455 51 138 -3 212 -9 293 -25z m-330 -608 c6 -28 4
-33 -12 -33 -15 0 -18 5 -14 23 13 58 17 60 26 10z m188 -543 l106 -290 -303
0 c-167 0 -304 3 -304 8 0 4 46 134 102 289 l103 283 95 0 95 0 106 -290z m0
-676 c149 -44 281 -156 348 -297 39 -81 71 -203 71 -272 l0 -35 -162 0 -163 0
-99 265 -98 265 -97 0 -97 0 -100 -262 -100 -263 -163 -3 -164 -3 7 64 c27
264 181 463 416 538 75 24 322 26 401 3z m-127 -468 c25 -70 46 -130 46 -132
0 -2 -56 -4 -124 -4 l-125 0 62 183 62 182 16 -50 c9 -27 37 -108 63 -179z
m-478 -418 c-13 -35 -33 -88 -45 -118 -12 -30 -21 -70 -21 -87 l0 -33 195 0
195 0 0 -100 0 -100 80 0 80 0 0 100 0 100 194 0 195 0 -6 47 c-2 25 -9 58
-15 72 -5 14 -23 61 -39 104 l-28 77 110 0 111 0 -7 -37 c-12 -68 -64 -186
-114 -265 -53 -82 -173 -214 -240 -263 l-41 -30 0 -81 0 -81 -37 -7 c-49 -8
-317 -8 -337 0 -13 5 -16 22 -16 83 l0 76 -80 68 c-143 120 -260 292 -309 451
-12 37 -21 72 -21 77 0 5 49 9 110 9 l109 0 -23 -62z m324 -13 l0 -75 -91 0
c-83 0 -90 2 -84 18 4 9 16 43 27 75 l20 57 64 0 64 0 0 -75z m306 6 c13 -35
24 -67 24 -72 0 -5 -38 -9 -85 -9 l-85 0 0 75 0 76 61 -3 61 -3 24 -64z"/>
</g>
</svg>
